# xmcd
#
# Track frame offsets: 
#        150
#        19616
#        36449
#        53554
#        70152
#        88472
#        100518
#        115830
#        132430
#        146799
#
# Disc length: 2260 seconds
#
# Revision: 0
# Processed by: cddbd v1.5.2PL0 Copyright (c) Steve Scherf et al.
# Submitted via: ExactAudioCopyFreeDBPlugin 1.0
#
DISCID=8a08d20a
DTITLE=John Corbett - Leaving Nothin' Behind
DYEAR=2013
DGENRE=Rock
TTITLE0=Steal Your Heart
TTITLE1=Tennessee Will
TTITLE2=Name On A Stone
TTITLE3=Rainy Windy Sunshine
TTITLE4=El Paso
TTITLE5=Backside Of A Backside
TTITLE6=Me and Whiskey
TTITLE7=Cocaine And Communion
TTITLE8=Satin Sheets
TTITLE9=Dairy Queen
EXTD=
EXTT0=
EXTT1=
EXTT2=
EXTT3=
EXTT4=
EXTT5=
EXTT6=
EXTT7=
EXTT8=
EXTT9=
PLAYORDER=
